# xmcd CD database file
#
# Track frame offsets:
#	150
#	27885
#	59354
#	77904
#	105690
#	140137
#	162660
#	188905
#	215745
#
# Disc length: 3166 seconds
#
# Revision: 0
# Processed by: cddbd v1.5.2PL0 Copyright (c) Steve Scherf et al.
# Submitted via: CDex 1.70beta2
#
DISCID=870c5c09
DTITLE=The Eric Ineke Jazzxpress - Flames ´n´ Fire
DYEAR=2006
DGENRE=Jazz
TTITLE0=Chick´s Tune
TTITLE1=Emandem
TTITLE2=Jotosco
TTITLE3=Barbar
TTITLE4=Body Movement
TTITLE5=Cross Country
TTITLE6=Flames ´n´ Fire
TTITLE7=Speak Like A Child
TTITLE8=Pinoccio
EXTD=YEAR: 2006
EXTT0=
EXTT1=
EXTT2=
EXTT3=
EXTT4=
EXTT5=
EXTT6=
EXTT7=
EXTT8=
PLAYORDER=
